<?xml version="1.0" encoding="UTF-8" standalone="no"?>
<svg
   xmlns:dc="http://purl.org/dc/elements/1.1/"
   xmlns:cc="http://creativecommons.org/ns#"
   xmlns:rdf="http://www.w3.org/1999/02/22-rdf-syntax-ns#"
   xmlns:svg="http://www.w3.org/2000/svg"
   xmlns="http://www.w3.org/2000/svg"
   xmlns:sodipodi="http://sodipodi.sourceforge.net/DTD/sodipodi-0.dtd"
   xmlns:inkscape="http://www.inkscape.org/namespaces/inkscape"
   height="24"
   version="1.1"
   width="24"
   id="svg2"
   inkscape:version="0.91 r13725"
   sodipodi:docname="new_map.svg">
  <metadata
     id="metadata38">
    <rdf:RDF>
      <cc:Work
         rdf:about="">
        <dc:format>image/svg+xml</dc:format>
        <dc:type
           rdf:resource="http://purl.org/dc/dcmitype/StillImage" />
      </cc:Work>
    </rdf:RDF>
  </metadata>
  <defs
     id="defs36" />
  <sodipodi:namedview
     pagecolor="#ffffff"
     bordercolor="#666666"
     borderopacity="1"
     objecttolerance="10"
     gridtolerance="10"
     guidetolerance="10"
     inkscape:pageopacity="0"
     inkscape:pageshadow="2"
     inkscape:window-width="1920"
     inkscape:window-height="1056"
     id="namedview34"
     showgrid="false"
     inkscape:zoom="9.8333333"
     inkscape:cx="12"
     inkscape:cy="12"
     inkscape:window-x="0"
     inkscape:window-y="24"
     inkscape:window-maximized="1"
     inkscape:current-layer="layer1" />
  <g
     transform="translate(0 -1028.4)"
     id="g4">
    <path
       d="m8 1030.4 8 1v19l-8-1z"
       fill="#ecf0f1"
       id="path6" />
    <path
       d="m2 1031.4 6-1v19l-6 1z"
       fill="#bdc3c7"
       id="path8" />
    <path
       d="m16 1031.4 6-1v19l-6 1z"
       fill="#bdc3c7"
       id="path10" />
    <path
       d="m3 1032.4 5-1v17l-5 1z"
       fill="#27ae60"
       id="path12" />
    <path
       d="m8 1031.4 8 1v17l-8-1z"
       fill="#2ecc71"
       id="path14" />
    <path
       d="m21 1048.4-5 1v-17l5-1z"
       fill="#27ae60"
       id="path16" />
    <path
       d="m5.6875 1031.8-2.3125 0.5 4.625 4.9v-2.9l-2.3125-2.5z"
       fill="#f39c12"
       id="path18" />
    <path
       d="m21 1046.4-5 1v-6l5-3z"
       fill="#f39c12"
       id="path20" />
    <path
       d="m21 1048.4-5 1v-6l5-3z"
       fill="#2980b9"
       id="path22" />
    <path
       d="m8 1042.4 8-1v6l-8-1z"
       fill="#f1c40f"
       id="path24" />
    <path
       d="m8 1044.4 8-1v6l-8-1z"
       fill="#3498db"
       id="path26" />
    <path
       d="m3 1045.4 5-3v4l-5 1z"
       fill="#f39c12"
       id="path28" />
    <path
       d="m3 1047.4 5-3v4l-5 1z"
       fill="#2980b9"
       id="path30" />
    <path
       d="m8 8.8008v-2.8985l4 8.6597h-1.469z"
       fill="#f1c40f"
       transform="translate(0 1028.4)"
       id="path32" />
  </g>
  <g
     inkscape:groupmode="layer"
     id="layer1"
     inkscape:label="Layer 1">
    <ellipse
       style="opacity:1;fill:#c0392b;fill-opacity:1;stroke:none;stroke-width:1.10702074;stroke-miterlimit:4;stroke-dasharray:none;stroke-opacity:1"
       id="path4169"
       cx="18.127119"
       cy="5.762712"
       rx="4.4464893"
       ry="4.4464898" />
    <path
       sodipodi:type="star"
       style="opacity:1;fill:#ffffff;fill-opacity:1;stroke:none;stroke-width:1;stroke-miterlimit:4;stroke-dasharray:none;stroke-opacity:1"
       id="path4171"
       sodipodi:sides="5"
       sodipodi:cx="18.20339"
       sodipodi:cy="6"
       sodipodi:r1="3.3109467"
       sodipodi:r2="1.6554734"
       sodipodi:arg1="0.82884906"
       sodipodi:arg2="1.4571676"
       inkscape:flatsided="false"
       inkscape:rounded="0"
       inkscape:randomized="0"
       d="M 20.440678,8.4406781 18.391095,7.6447975 16.573527,8.8819986 16.697099,6.6867883 14.958791,5.340495 l 2.125955,-0.560834 0.743235,-2.0692561 1.19034,1.8485958 2.197652,0.067423 -1.390283,1.703329 z"
       inkscape:transform-center-x="0.11600795"
       inkscape:transform-center-y="-0.20379825" />
  </g>
</svg>
