<?xml version="1.0" encoding="UTF-8" standalone="no"?>
<svg
   xmlns:dc="http://purl.org/dc/elements/1.1/"
   xmlns:cc="http://creativecommons.org/ns#"
   xmlns:rdf="http://www.w3.org/1999/02/22-rdf-syntax-ns#"
   xmlns:svg="http://www.w3.org/2000/svg"
   xmlns="http://www.w3.org/2000/svg"
   xmlns:sodipodi="http://sodipodi.sourceforge.net/DTD/sodipodi-0.dtd"
   xmlns:inkscape="http://www.inkscape.org/namespaces/inkscape"
   height="24"
   version="1.1"
   width="24"
   id="svg4151"
   inkscape:version="0.91 r13725"
   sodipodi:docname="simulator.svg">
  <metadata
     id="metadata4181">
    <rdf:RDF>
      <cc:Work
         rdf:about="">
        <dc:format>image/svg+xml</dc:format>
        <dc:type
           rdf:resource="http://purl.org/dc/dcmitype/StillImage" />
        <dc:title></dc:title>
      </cc:Work>
    </rdf:RDF>
  </metadata>
  <defs
     id="defs4179" />
  <sodipodi:namedview
     pagecolor="#ffffff"
     bordercolor="#666666"
     borderopacity="1"
     objecttolerance="10"
     gridtolerance="10"
     guidetolerance="10"
     inkscape:pageopacity="0"
     inkscape:pageshadow="2"
     inkscape:window-width="1920"
     inkscape:window-height="1056"
     id="namedview4177"
     showgrid="false"
     inkscape:zoom="9.8333333"
     inkscape:cx="12"
     inkscape:cy="12"
     inkscape:window-x="0"
     inkscape:window-y="24"
     inkscape:window-maximized="1"
     inkscape:current-layer="svg4151" />
  <g
     transform="translate(0 -1028.4)"
     id="g4153">
    <path
       d="m11.982 1033.4c-3.0712 0-6.157 1.1-8.5001 3.5-3.3821 3.3-4.2808 8.2-2.7813 12.5h22.562c1.5-4.3 0.601-9.2-2.781-12.5-2.343-2.4-5.429-3.5-8.5-3.5z"
       fill="#2c3e50"
       id="path4155" />
    <path
       d="m12 1032.4c-3.0711 0-6.1569 1.1-8.5 3.5-3.3821 3.3-4.2808 8.2-2.7812 12.5h22.562c1.5-4.3 0.601-9.2-2.781-12.5-2.343-2.4-5.429-3.5-8.5-3.5z"
       fill="#34495e"
       id="path4157" />
    <path
       d="m13 11.864a1 0.86412 0 1 1 -2 0 1 0.86412 0 1 1 2 0z"
       fill="#2c3e50"
       transform="matrix(1.4142 1.4142 -1.6366 1.6366 14.446 1009)"
       id="path4159" />
    <path
       d="m12 5.9419 7.481 12.957h-14.962z"
       fill="#c0392b"
       transform="matrix(.094524 .094524 -.60031 .60031 22.211 1031.9)"
       id="path4161" />
    <path
       d="m19.759 1037.6a0.19843 1.2602 45 0 0 -0.044 0 0.19843 1.2602 45 0 0 -0.509 0.3l-7.999 6.7h0.067l-2.1217 2.1c-0.3906 0.4-0.3906 1.1 0 1.5 0.3905 0.4 1.0237 0.4 1.4137 0l2.122-2.2 0.088 0.1 6.674-8a0.19843 1.2602 45 0 0 0.331 -0.5 0.19843 1.2602 45 0 0 -0.022 0z"
       fill="#2c3e50"
       style="block-progression:tb;text-indent:0;color:#000000;text-transform:none"
       id="path4163" />
    <path
       d="m19.778 1036.6a0.19843 1.2602 45 0 0 -0.044 0 0.19843 1.2602 45 0 0 -0.508 0.3l-7.999 6.7 0.066 0.1-2.1214 2.1c-0.3906 0.4-0.3906 1 0 1.4 0.3905 0.4 1.0234 0.4 1.4144 0l2.121-2.1 0.088 0.1 6.674-8a0.19843 1.2602 45 0 0 0.331 -0.6 0.19843 1.2602 45 0 0 -0.022 0z"
       fill="#f1c40f"
       style="block-progression:tb;text-indent:0;color:#000000;text-transform:none"
       id="path4165" />
    <path
       d="m13 11.864a1 0.86412 0 1 1 -2 0 1 0.86412 0 1 1 2 0z"
       fill="#f39c12"
       transform="matrix(1.4142 1.4142 -1.6366 1.6366 14.446 1008)"
       id="path4167" />
    <path
       d="m13 12a1 1 0 1 1 -2 0 1 1 0 1 1 2 0z"
       fill="#2c3e50"
       transform="matrix(.70711 .70711 -.70711 .70711 12 1027.4)"
       id="path4169" />
    <path
       d="m12 1032.4c-3.0711 0-6.1569 1.1-8.5 3.5-2.5366 2.5-3.6901 5.9-3.4688 9.2 0.044563-3 1.1842-6 3.4688-8.2 2.3431-2.4 5.4289-3.5 8.5-3.5 3.071 0 6.157 1.1 8.5 3.5 2.285 2.2 3.424 5.2 3.469 8.2 0.221-3.3-0.932-6.7-3.469-9.2-2.343-2.4-5.429-3.5-8.5-3.5z"
       fill="#2c3e50"
       id="path4171" />
    <path
       d="m12 1034.4h-0.5v2h0.5 0.5v-2h-0.5zm-4.7812 1.1c-0.3039 0.2-0.5968 0.4-0.875 0.5l1 1.8c0.2799-0.2 0.5749-0.4 0.875-0.5l-1-1.8zm9.5622 0-1 1.8c0.3 0.1 0.595 0.3 0.875 0.5l1-1.8c-0.278-0.1-0.571-0.3-0.875-0.5zm-13.594 3.7c-0.1776 0.3-0.3144 0.6-0.4687 0.9l1.7187 1c0.1536-0.3 0.3092-0.6 0.5-0.9l-1.75-1zm17.624 0-1.75 1c0.191 0.3 0.347 0.6 0.5 0.9l1.75-1c-0.158-0.3-0.312-0.6-0.5-0.9zm-19.281 5.2c-0.0119 0.1-0.0312 0.3-0.0312 0.5 0 0.1 0.0186 0.3 0.0312 0.5h2c-0.008-0.2-0.0312-0.3-0.0312-0.5-0.0002 0 0 0 0 0 0.0013-0.2 0.0195-0.4 0.0312-0.5h-2zm18.938 0c0.01 0.1 0.031 0.3 0.031 0.5 0 0.1-0.021 0.3-0.031 0.5h2c0.011-0.2 0.027-0.3 0.031-0.5 0-0.2-0.017-0.4-0.031-0.5h-2z"
       fill="#7f8c8d"
       id="path4173" />
    <path
       d="m12 6c-0.158 0-0.336 0.0192-0.5 0.0312v2c0.167-0.0098 0.33-0.0312 0.5-0.0312s0.333 0.0214 0.5 0.0312v-2c-0.164-0.012-0.342-0.0312-0.5-0.0312zm-10.469 10c-0.0119 0.164-0.0312 0.342-0.0312 0.5 0 0.163 0.0186 0.33 0.0312 0.5h2c-0.008-0.146-0.0312-0.289-0.0312-0.438v-0.031c-0.0002-0.01 0-0.02 0-0.031 0.0013-0.17 0.0195-0.334 0.0312-0.5h-2zm18.938 0c0.01 0.167 0.031 0.33 0.031 0.5s-0.021 0.333-0.031 0.5h2c0.011-0.149 0.027-0.294 0.031-0.438 0-0.189-0.017-0.375-0.031-0.562h-2z"
       fill="#ecf0f1"
       transform="translate(0 1028.4)"
       id="path4175" />
  </g>
  <g
     transform="matrix(0.57169562,0,0,0.57169562,4.6085148,-580.06449)"
     id="g4">
    <path
       style="fill:#7f8c8d"
       inkscape:connector-curvature="0"
       d="m 16,1030.4 0,1 c -0.312,0.1 -0.617,0.2 -0.875,0.4 l -0.75,-0.8 -0.719,0.7 0.75,0.8 c -0.168,0.2 -0.28,0.6 -0.344,0.9 l -1.062,0 0,1 1.062,0 c 0.064,0.3 0.176,0.6 0.344,0.8 l -0.75,0.8 0.719,0.7 0.75,-0.7 c 0.258,0.1 0.563,0.2 0.875,0.3 l 0,1.1 1,0 0,-1.1 c 0.312,-0.1 0.617,-0.2 0.875,-0.3 l 0.75,0.7 0.719,-0.7 -0.75,-0.8 c 0.168,-0.2 0.28,-0.5 0.344,-0.8 l 1.062,0 0,-1 -1.062,0 c -0.064,-0.3 -0.176,-0.7 -0.344,-0.9 l 0.75,-0.8 -0.719,-0.7 -0.75,0.8 c -0.258,-0.2 -0.563,-0.3 -0.875,-0.4 l 0,-1 -1,0 z m 0.5,2 c 0.828,0 1.5,0.6 1.5,1.5 0,0.8 -0.672,1.5 -1.5,1.5 -0.828,0 -1.5,-0.7 -1.5,-1.5 0,-0.9 0.672,-1.5 1.5,-1.5 z"
       id="path6" />
    <path
       style="fill:#95a5a6"
       inkscape:connector-curvature="0"
       d="m 10,1033.3 -2.0312,0.1 0,2.1 c -0.3602,0 -0.712,0.1 -1.0626,0.2 l -1.0624,-1.8 -1.7188,1 1.0312,1.8 c -0.2891,0.3 -0.5468,0.5 -0.7812,0.8 l -1.8125,-1 -1,1.7 1.8125,1.1 c -0.1343,0.3 -0.2489,0.7 -0.3125,1.1 l -2.0938,0 5e-5,2 2.125,0 c 0.0627,0.4 0.1498,0.7 0.2812,1.1 l -1.8125,1 1,1.7 1.8125,-1 c 0.2379,0.3 0.5008,0.5 0.7812,0.8 l -1.0624,1.8 1.75,1 1.0312,-1.8 c 0.3599,0.1 0.7461,0.2 1.125,0.3 l 0,2.1 2,0 0,-2.1 c 0.36,-0.1 0.712,-0.2 1.062,-0.3 l 1.063,1.8 1.719,-1 -1.032,-1.8 c 0.29,-0.3 0.547,-0.5 0.782,-0.8 l 1.812,1 1.032,-1.7 -1.844,-1 c 0.134,-0.4 0.249,-0.8 0.312,-1.1 l 2.094,0 0,-2.1 -2.125,0 c -0.063,-0.3 -0.15,-0.7 -0.281,-1 l 1.812,-1.1 -1,-1.7 -1.812,1 c -0.238,-0.2 -0.501,-0.5 -0.782,-0.7 l 1.063,-1.9 -1.75,-1 -1.031,1.8 c -0.36,-0.1 -0.746,-0.2 -1.1252,-0.2 l 0.0312,-2.2 z m -1,5.1 c 1.657,0 3,1.3 3,3 0,1.6 -1.343,3 -3,3 -1.6569,0 -3,-1.4 -3,-3 0,-1.7 1.3431,-3 3,-3 z"
       id="path8" />
    <path
       style="fill:#bdc3c7"
       inkscape:connector-curvature="0"
       d="m 19,1035.3 0,1.1 c -0.27,0 -0.534,0.1 -0.781,0.2 l -0.531,-0.9 -0.876,0.5 0.532,0.9 c -0.224,0.2 -0.419,0.4 -0.594,0.6 l -0.906,-0.6 -0.5,0.9 0.906,0.5 c -0.096,0.3 -0.181,0.6 -0.219,0.8 l -1.031,0 0,1 1.031,0 c 0.038,0.3 0.123,0.6 0.219,0.8 l -0.906,0.5 0.5,0.9 0.906,-0.5 c 0.175,0.2 0.37,0.4 0.594,0.6 l -0.532,0.9 0.876,0.5 0.531,-0.9 c 0.247,0.1 0.511,0.2 0.781,0.2 l 0,1 1,0 0,-1 c 0.27,0 0.534,-0.1 0.781,-0.2 l 0.531,0.9 0.876,-0.5 -0.532,-0.9 c 0.224,-0.2 0.419,-0.4 0.594,-0.6 l 0.906,0.5 0.5,-0.9 -0.906,-0.5 c 0.096,-0.2 0.181,-0.5 0.219,-0.8 l 1.031,0 0,-1 -1.031,0 c -0.038,-0.2 -0.123,-0.5 -0.219,-0.8 l 0.906,-0.5 -0.5,-0.9 -0.906,0.6 c -0.175,-0.2 -0.37,-0.4 -0.594,-0.6 l 0.532,-0.9 -0.876,-0.5 -0.531,0.9 c -0.247,-0.1 -0.511,-0.2 -0.781,-0.2 l 0,-1.1 -1,0 z m 0.5,2 c 1.381,0 2.5,1.2 2.5,2.5 0,1.4 -1.119,2.5 -2.5,2.5 -1.381,0 -2.5,-1.1 -2.5,-2.5 0,-1.3 1.119,-2.5 2.5,-2.5 z"
       id="path10" />
  </g>
</svg>
