<?xml version="1.0" encoding="UTF-8" standalone="no"?>
<svg
   xmlns:dc="http://purl.org/dc/elements/1.1/"
   xmlns:cc="http://creativecommons.org/ns#"
   xmlns:rdf="http://www.w3.org/1999/02/22-rdf-syntax-ns#"
   xmlns:svg="http://www.w3.org/2000/svg"
   xmlns="http://www.w3.org/2000/svg"
   xmlns:sodipodi="http://sodipodi.sourceforge.net/DTD/sodipodi-0.dtd"
   xmlns:inkscape="http://www.inkscape.org/namespaces/inkscape"
   height="24"
   version="1.1"
   width="24"
   id="svg18"
   inkscape:version="0.91 r13725"
   sodipodi:docname="editor.svg">
  <metadata
     id="metadata48">
    <rdf:RDF>
      <cc:Work
         rdf:about="">
        <dc:format>image/svg+xml</dc:format>
        <dc:type
           rdf:resource="http://purl.org/dc/dcmitype/StillImage" />
        <dc:title></dc:title>
      </cc:Work>
    </rdf:RDF>
  </metadata>
  <defs
     id="defs46" />
  <sodipodi:namedview
     pagecolor="#ffffff"
     bordercolor="#666666"
     borderopacity="1"
     objecttolerance="10"
     gridtolerance="10"
     guidetolerance="10"
     inkscape:pageopacity="0"
     inkscape:pageshadow="2"
     inkscape:window-width="1920"
     inkscape:window-height="1056"
     id="namedview44"
     showgrid="false"
     inkscape:zoom="9.8333333"
     inkscape:cx="19.935794"
     inkscape:cy="10.671066"
     inkscape:window-x="0"
     inkscape:window-y="24"
     inkscape:window-maximized="1"
     inkscape:current-layer="svg18" />
  <g
     transform="translate(0 -1028.4)"
     id="g20">
    <path
       d="m11.982 1033.4c-3.0712 0-6.157 1.1-8.5001 3.5-3.3821 3.3-4.2808 8.2-2.7813 12.5h22.562c1.5-4.3 0.601-9.2-2.781-12.5-2.343-2.4-5.429-3.5-8.5-3.5z"
       fill="#2c3e50"
       id="path22" />
    <path
       d="m12 1032.4c-3.0711 0-6.1569 1.1-8.5 3.5-3.3821 3.3-4.2808 8.2-2.7812 12.5h22.562c1.5-4.3 0.601-9.2-2.781-12.5-2.343-2.4-5.429-3.5-8.5-3.5z"
       fill="#34495e"
       id="path24" />
    <path
       d="m13 11.864a1 0.86412 0 1 1 -2 0 1 0.86412 0 1 1 2 0z"
       fill="#2c3e50"
       transform="matrix(1.4142 1.4142 -1.6366 1.6366 14.446 1009)"
       id="path26" />
    <path
       d="m12 5.9419 7.481 12.957h-14.962z"
       fill="#c0392b"
       transform="matrix(.094524 .094524 -.60031 .60031 22.211 1031.9)"
       id="path28" />
    <path
       d="m19.759 1037.6a0.19843 1.2602 45 0 0 -0.044 0 0.19843 1.2602 45 0 0 -0.509 0.3l-7.999 6.7h0.067l-2.1217 2.1c-0.3906 0.4-0.3906 1.1 0 1.5 0.3905 0.4 1.0237 0.4 1.4137 0l2.122-2.2 0.088 0.1 6.674-8a0.19843 1.2602 45 0 0 0.331 -0.5 0.19843 1.2602 45 0 0 -0.022 0z"
       fill="#2c3e50"
       style="block-progression:tb;text-indent:0;color:#000000;text-transform:none"
       id="path30" />
    <path
       d="m19.778 1036.6a0.19843 1.2602 45 0 0 -0.044 0 0.19843 1.2602 45 0 0 -0.508 0.3l-7.999 6.7 0.066 0.1-2.1214 2.1c-0.3906 0.4-0.3906 1 0 1.4 0.3905 0.4 1.0234 0.4 1.4144 0l2.121-2.1 0.088 0.1 6.674-8a0.19843 1.2602 45 0 0 0.331 -0.6 0.19843 1.2602 45 0 0 -0.022 0z"
       fill="#f1c40f"
       style="block-progression:tb;text-indent:0;color:#000000;text-transform:none"
       id="path32" />
    <path
       d="m13 11.864a1 0.86412 0 1 1 -2 0 1 0.86412 0 1 1 2 0z"
       fill="#f39c12"
       transform="matrix(1.4142 1.4142 -1.6366 1.6366 14.446 1008)"
       id="path34" />
    <path
       d="m13 12a1 1 0 1 1 -2 0 1 1 0 1 1 2 0z"
       fill="#2c3e50"
       transform="matrix(.70711 .70711 -.70711 .70711 12 1027.4)"
       id="path36" />
    <path
       d="m12 1032.4c-3.0711 0-6.1569 1.1-8.5 3.5-2.5366 2.5-3.6901 5.9-3.4688 9.2 0.044563-3 1.1842-6 3.4688-8.2 2.3431-2.4 5.4289-3.5 8.5-3.5 3.071 0 6.157 1.1 8.5 3.5 2.285 2.2 3.424 5.2 3.469 8.2 0.221-3.3-0.932-6.7-3.469-9.2-2.343-2.4-5.429-3.5-8.5-3.5z"
       fill="#2c3e50"
       id="path38" />
    <path
       d="m12 1034.4h-0.5v2h0.5 0.5v-2h-0.5zm-4.7812 1.1c-0.3039 0.2-0.5968 0.4-0.875 0.5l1 1.8c0.2799-0.2 0.5749-0.4 0.875-0.5l-1-1.8zm9.5622 0-1 1.8c0.3 0.1 0.595 0.3 0.875 0.5l1-1.8c-0.278-0.1-0.571-0.3-0.875-0.5zm-13.594 3.7c-0.1776 0.3-0.3144 0.6-0.4687 0.9l1.7187 1c0.1536-0.3 0.3092-0.6 0.5-0.9l-1.75-1zm17.624 0-1.75 1c0.191 0.3 0.347 0.6 0.5 0.9l1.75-1c-0.158-0.3-0.312-0.6-0.5-0.9zm-19.281 5.2c-0.0119 0.1-0.0312 0.3-0.0312 0.5 0 0.1 0.0186 0.3 0.0312 0.5h2c-0.008-0.2-0.0312-0.3-0.0312-0.5-0.0002 0 0 0 0 0 0.0013-0.2 0.0195-0.4 0.0312-0.5h-2zm18.938 0c0.01 0.1 0.031 0.3 0.031 0.5 0 0.1-0.021 0.3-0.031 0.5h2c0.011-0.2 0.027-0.3 0.031-0.5 0-0.2-0.017-0.4-0.031-0.5h-2z"
       fill="#7f8c8d"
       id="path40" />
    <path
       d="m12 6c-0.158 0-0.336 0.0192-0.5 0.0312v2c0.167-0.0098 0.33-0.0312 0.5-0.0312s0.333 0.0214 0.5 0.0312v-2c-0.164-0.012-0.342-0.0312-0.5-0.0312zm-10.469 10c-0.0119 0.164-0.0312 0.342-0.0312 0.5 0 0.163 0.0186 0.33 0.0312 0.5h2c-0.008-0.146-0.0312-0.289-0.0312-0.438v-0.031c-0.0002-0.01 0-0.02 0-0.031 0.0013-0.17 0.0195-0.334 0.0312-0.5h-2zm18.938 0c0.01 0.167 0.031 0.33 0.031 0.5s-0.021 0.333-0.031 0.5h2c0.011-0.149 0.027-0.294 0.031-0.438 0-0.189-0.017-0.375-0.031-0.562h-2z"
       fill="#ecf0f1"
       transform="translate(0 1028.4)"
       id="path42" />
  </g>
  <g
     id="g5348">
    <path
       id="path56"
       d="m 5.2219106,1.0821747 c 0.8386777,-0.059481 1.6921066,0.1784421 2.3356876,0.8327296 0.7839555,0.773249 1.0278263,1.903382 0.7619476,2.9145537 l 5.5995122,5.591185 c 0.58529,0.594806 0.58529,1.546497 0,2.081824 -0.585885,0.594807 -1.535197,0.594807 -2.120487,0 L 6.1992378,6.9112821 C 5.1995459,7.2086855 4.1009376,6.9707627 3.3168632,6.1380331 2.6732227,5.5432263 2.4044889,4.6510159 2.4719995,3.8182863 L 2.7867118,3.5208829 4.9071388,5.6621876 6.4974145,5.1268614 7.0276253,3.5208829 4.9071388,1.3795782 5.2219106,1.0821747 Z m 7.1067524,9.8737943 c -0.292645,0.297403 -0.292645,0.773249 0,1.011171 0.292645,0.297404 0.767301,0.297404 1.059946,0 0.29324,-0.237922 0.29324,-0.713768 0,-1.011171 -0.292645,-0.297404 -0.767301,-0.297404 -1.059946,0 z"
       inkscape:connector-curvature="0"
       style="fill:#7f8c8d" />
    <path
       id="path58"
       d="m 5.3828059,0.60632923 c 0.8386777,-0.0594807 1.692404,0.23792275 2.335985,0.89221027 0.7839554,0.773249 1.0278263,1.8439013 0.7619476,2.855073 l 5.5989175,5.5911846 c 0.585884,0.5948069 0.585884,1.5464979 0,2.1413049 -0.58529,0.594807 -1.534602,0.594807 -2.120487,0 L 6.360133,6.4949172 C 5.3604411,6.73284 4.2618923,6.4949172 3.4777584,5.7216683 2.8341179,5.0673808 2.5653842,4.2346511 2.6328947,3.4019215 L 2.9476665,3.0450374 5.0680341,5.1863421 6.6583692,4.6510159 7.1882232,3.0450374 5.0680341,0.96321335 5.3828059,0.60632923 Z M 12.489558,10.480123 c -0.293239,0.297404 -0.293239,0.773249 0,1.070653 0.292645,0.297403 0.767301,0.297403 1.059946,0 0.292645,-0.297404 0.292645,-0.773249 0,-1.070653 -0.292645,-0.297403 -0.767301,-0.297403 -1.059946,0 z"
       inkscape:connector-curvature="0"
       style="fill:#95a5a6" />
    <path
       id="path60"
       d="M 14.038614,1.4390588 12.031141,2.2123078 12.625948,2.8071146 8.4063876,7.0302434 7.1798959,5.8406297 6.1202474,6.9112821 c 0.2006879,0.5353261 0.1429321,1.0706523 -0.2044351,1.4275364 -0.04348,0 -0.081013,0.059481 -0.1301437,0.059481 -0.1473337,0.1189614 -0.3182217,0.1784421 -0.5018981,0.2379228 -0.2448225,0 -0.5177199,0 -0.7806245,-0.1189614 l -2.9554764,2.9145534 1.2267892,1.249095 1.821596,1.843901 2.9555954,-2.974034 C 7.3506054,11.015449 7.3898627,10.480123 7.7372299,10.123239 8.0845971,9.766355 8.6240869,9.7068743 9.1498962,9.9447971 L 10.228281,8.8741447 9.0202283,7.6250503 13.239193,3.4019215 13.852439,4.0562091 14.65186,2.0338657 14.038614,1.4390588 Z"
       inkscape:connector-curvature="0"
       style="fill:#2c3e50;fill-opacity:1" />
    <path
       id="path62"
       d="M 7.2453246,5.2458228 6.1735421,6.3164752 C 6.3742894,6.7923207 6.3221844,7.3871275 5.9747577,7.684531 5.627331,8.0414151 5.0846292,8.1008958 4.5588199,7.9224537 L 1.6082804,10.837007 4.651015,13.870522 7.6016139,10.955969 C 7.401164,10.420643 7.4529122,9.8853164 7.8002794,9.5284323 8.1476466,9.1715482 8.6907053,9.1120675 9.2165146,9.3499902 L 10.287762,8.2793379 7.2453246,5.2458228 Z"
       inkscape:connector-curvature="0"
       style="fill:#f39c12" />
    <path
       id="path64"
       d="M 9.0707869,7.0302434 13.298674,2.8071146 13.907162,3.4614022 14.707772,1.4390588 14.099284,0.78477129 12.081699,1.6175009 12.690187,2.2123078 8.4622995,6.4354366 9.0707869,7.0302434 Z"
       inkscape:connector-curvature="0"
       style="fill:#bdc3c7" />
    <path
       id="path66"
       d="M 2.8253742,12.086102 8.4622995,6.4354366 7.2453246,5.2458228 6.1735421,6.3164752 C 6.3742894,6.7923207 6.3221844,7.3871275 5.9747577,7.684531 5.627331,8.0414151 5.0846292,8.1008958 4.5588199,7.9224537 l -2.9505395,2.9145533 1.2170938,1.249095 z"
       inkscape:connector-curvature="0"
       style="fill:#f1c40f" />
  </g>
</svg>
