<?xml version="1.0" encoding="UTF-8" standalone="no"?>
<!-- Created with Inkscape (http://www.inkscape.org/) -->

<svg
   xmlns:dc="http://purl.org/dc/elements/1.1/"
   xmlns:cc="http://creativecommons.org/ns#"
   xmlns:rdf="http://www.w3.org/1999/02/22-rdf-syntax-ns#"
   xmlns:svg="http://www.w3.org/2000/svg"
   xmlns="http://www.w3.org/2000/svg"
   xmlns:sodipodi="http://sodipodi.sourceforge.net/DTD/sodipodi-0.dtd"
   xmlns:inkscape="http://www.inkscape.org/namespaces/inkscape"
   width="512pt"
   height="512pt"
   viewBox="0 0 180.62221 180.62223"
   version="1.1"
   id="svg897"
   sodipodi:docname="turn.svg.2017_12_28_13_45_23.0.svg"
   inkscape:version="0.92.2 (5c3e80d, 2017-08-06)">
  <defs
     id="defs891" />
  <sodipodi:namedview
     id="base"
     pagecolor="#ffffff"
     bordercolor="#666666"
     borderopacity="1.0"
     inkscape:pageopacity="0.0"
     inkscape:pageshadow="2"
     inkscape:zoom="0.7"
     inkscape:cx="196.82744"
     inkscape:cy="422.76047"
     inkscape:document-units="mm"
     inkscape:current-layer="layer1"
     showgrid="false"
     units="pt"
     inkscape:window-width="1920"
     inkscape:window-height="1022"
     inkscape:window-x="1920"
     inkscape:window-y="30"
     inkscape:window-maximized="1" />
  <metadata
     id="metadata894">
    <rdf:RDF>
      <cc:Work
         rdf:about="">
        <dc:format>image/svg+xml</dc:format>
        <dc:type
           rdf:resource="http://purl.org/dc/dcmitype/StillImage" />
        <dc:title />
      </cc:Work>
    </rdf:RDF>
  </metadata>
  <g
     inkscape:label="Background"
     inkscape:groupmode="layer"
     id="layer1"
     transform="translate(0,-116.37776)"
     style="opacity:0.99">
    <rect
       style="fill:none;fill-opacity:1;stroke:none;stroke-width:6;stroke-miterlimit:4;stroke-dasharray:18, 6;stroke-dashoffset:0;stroke-opacity:1"
       id="rect1491"
       width="160"
       height="160"
       x="10.311111"
       y="126.68887" />
  </g>
  <g
     inkscape:groupmode="layer"
     id="layer2"
     inkscape:label="Ebene 2">
    <path
       style="fill:none;stroke:#000000;stroke-width:6;stroke-linecap:butt;stroke-linejoin:miter;stroke-miterlimit:4;stroke-dasharray:none;stroke-opacity:1"
       d="m 95.071692,167.08342 c 0,-42.83479 5.640218,-80.91729 72.197288,-80.91729"
       id="path1497"
       inkscape:connector-curvature="0"
       sodipodi:nodetypes="cc" />
    <path
       style="fill:none;stroke:#000000;stroke-width:6;stroke-linecap:butt;stroke-linejoin:miter;stroke-miterlimit:4;stroke-dasharray:none;stroke-opacity:1"
       d="m 16.667121,166.98286 c 0,-90.072092 53.117475,-153.02625 150.384699,-150.587873"
       id="path1486"
       inkscape:connector-curvature="0"
       sodipodi:nodetypes="cc" />
    <path
       style="opacity:0.98999999;fill:#999999;fill-opacity:1;stroke:#999999;stroke-width:2.37732286;stroke-miterlimit:4;stroke-dasharray:none;stroke-opacity:1"
       d="m 181.69048,629.8797 -106.785718,-0.37547 0.0066,-11.06234 C 74.930611,586.42795 80.386317,530.72809 87.02182,494.80095 105.47465,394.89023 144.83389,308.32613 202.11831,241.66528 295.9821,132.43766 437.70593,73.808132 607.87555,73.808132 h 22.7435 v 119.776198 119.7762 l -22.5,0.92353 c -109.38769,4.48987 -178.6988,36.55496 -219.43827,101.51772 -25.91449,41.323 -38.4661,96.85697 -40.47459,179.07778 l -0.88116,36.07143 -29.42441,-0.34791 c -16.18344,-0.19135 -77.478,-0.51688 -136.21014,-0.72338 z M 593.47619,300.95099 v -11.42857 h -4.28571 -4.28572 v 11.42857 11.42857 h 4.28572 4.28571 z m 0,-28.57143 v -11.42857 h -4.28571 -4.28572 v 11.42857 11.42857 h 4.28572 4.28571 z m -0.29706,-28.92857 0.41725,-11.07143 h -4.34582 -4.3458 v 11.52346 11.52346 l 3.92857,-0.45203 c 3.86706,-0.44495 3.9351,-0.6254 4.3458,-11.52346 z m 0,-28.57143 0.41725,-11.07143 h -4.34582 -4.3458 v 10.47619 c 0,11.38704 0.54249,12.71373 4.94122,12.08407 2.60598,-0.37303 2.96028,-1.59424 3.33315,-11.48883 z"
       id="path826"
       inkscape:connector-curvature="0"
       transform="scale(0.26458333)" />
    <g
       id="g1511"
       transform="translate(34.002125,39.771343)">
      <g
         transform="translate(-16.83798,-65.748304)"
         id="g1505">
        <path
           transform="translate(0,-116.37776)"
           style="fill:none;stroke:#ffffff;stroke-width:13;stroke-linecap:butt;stroke-linejoin:miter;stroke-miterlimit:4;stroke-dasharray:none;stroke-opacity:1"
           d="m 88.446426,212.90029 c -38.272546,0 -30.42708,21.55435 -30.42708,39.4985"
           id="path1458"
           inkscape:connector-curvature="0"
           sodipodi:nodetypes="cc" />
        <path
           sodipodi:type="star"
           style="fill:#ffffff;fill-opacity:1;stroke:#ff0000;stroke-width:0;stroke-miterlimit:4;stroke-dasharray:none;stroke-dashoffset:0;stroke-opacity:1"
           id="path853"
           sodipodi:sides="3"
           sodipodi:cx="115.19317"
           sodipodi:cy="206.93021"
           sodipodi:r1="16.045078"
           sodipodi:r2="8.0225391"
           sodipodi:arg1="0"
           sodipodi:arg2="1.0471976"
           inkscape:flatsided="false"
           inkscape:rounded="0"
           inkscape:randomized="0"
           d="m 131.23825,206.93021 -12.03381,6.94772 -12.03381,6.94772 0,-13.89544 0,-13.89545 12.03381,6.94772 z"
           inkscape:transform-center-x="-3.3626023"
           inkscape:transform-center-y="-1.7671122e-06"
           transform="matrix(0.83828911,0,0,1,-6.605461,-110.59667)" />
        <path
           sodipodi:type="star"
           style="fill:#ffffff;fill-opacity:1;stroke:#ff0000;stroke-width:0;stroke-miterlimit:4;stroke-dasharray:none;stroke-dashoffset:0;stroke-opacity:1"
           id="path853-3"
           sodipodi:sides="3"
           sodipodi:cx="115.19317"
           sodipodi:cy="206.93021"
           sodipodi:r1="16.045078"
           sodipodi:r2="8.0225391"
           sodipodi:arg1="0"
           sodipodi:arg2="1.0471976"
           inkscape:flatsided="false"
           inkscape:rounded="0"
           inkscape:randomized="0"
           d="m 131.23825,206.93021 -12.03381,6.94772 -12.03381,6.94772 0,-13.89544 0,-13.89545 12.03381,6.94772 z"
           inkscape:transform-center-x="-3.5037108e-06"
           inkscape:transform-center-y="3.3626024"
           transform="matrix(0,0.83828911,-1,0,264.91314,40.211809)" />
      </g>
    </g>
    <path
       style="fill:none;stroke:#ff0000;stroke-width:2.02976489;stroke-linecap:butt;stroke-linejoin:miter;stroke-miterlimit:4;stroke-dasharray:6.08929464, 2.02976487;stroke-dashoffset:0;stroke-opacity:1"
       d="M 9.2029026,166.93911 H 101.45919"
       id="path1478"
       inkscape:connector-curvature="0" />
    <path
       style="fill:none;stroke:#ff0000;stroke-width:1.95132637;stroke-linecap:butt;stroke-linejoin:miter;stroke-miterlimit:4;stroke-dasharray:5.8539791, 1.95132636;stroke-dashoffset:0;stroke-opacity:1"
       d="M 167.26898,9.9738005 V 95.237559"
       id="path1478-7"
       inkscape:connector-curvature="0" />
    <path
       style="opacity:0.98999999;fill:#999999;fill-opacity:1;stroke:#999999;stroke-width:1.69808781;stroke-miterlimit:4;stroke-dasharray:none;stroke-opacity:1"
       d="m 586.90818,223.71363 c -0.23846,-0.62141 -0.43357,-4.9607 -0.43357,-9.64285 v -8.51301 h 2.88985 2.88984 l -0.42525,7.32142 c -0.64641,11.12907 -0.8426,11.96429 -2.81038,11.96429 -0.92231,0 -1.87203,-0.50843 -2.11049,-1.12985 z"
       id="path828"
       inkscape:connector-curvature="0"
       transform="scale(0.26458333)" />
    <path
       style="opacity:0.98999999;fill:#999999;fill-opacity:1;stroke:#999999;stroke-width:1.69808781;stroke-miterlimit:4;stroke-dasharray:none;stroke-opacity:1"
       d="m 586.47461,243.77205 v -9.64286 h 2.86982 2.86983 l -0.4148,8.03572 c -0.56985,11.03949 -0.62964,11.25 -3.1956,11.25 h -2.12925 z"
       id="path830"
       inkscape:connector-curvature="0"
       transform="scale(0.26458333)" />
    <path
       style="opacity:0.98999999;fill:#999999;fill-opacity:1;stroke:#999999;stroke-width:1.69808781;stroke-miterlimit:4;stroke-dasharray:none;stroke-opacity:1"
       d="m 586.47461,272.34348 v -9.64286 h 2.85714 2.85715 v 9.64286 9.64286 h -2.85715 -2.85714 z"
       id="path832"
       inkscape:connector-curvature="0"
       transform="scale(0.26458333)" />
    <path
       style="opacity:0.98999999;fill:#999999;fill-opacity:1;stroke:#999999;stroke-width:1.69808781;stroke-miterlimit:4;stroke-dasharray:none;stroke-opacity:1"
       d="m 586.47461,300.91491 v -9.64286 h 2.85714 2.85715 v 9.64286 9.64286 h -2.85715 -2.85714 z"
       id="path834"
       inkscape:connector-curvature="0"
       transform="scale(0.26458333)" />
  </g>
</svg>
